<?xml version="1.0" encoding="UTF-8" standalone="no"?>
<!-- Created with Inkscape (http://www.inkscape.org/) -->

<svg
   width="1600"
   height="900"
   viewBox="0 0 423.33333 238.12501"
   version="1.1"
   id="svg5"
   inkscape:version="1.1.2 (b8e25be833, 2022-02-05)"
   sodipodi:docname="A&amp;G.svg"
   inkscape:export-filename="C:\Users\nicht\Desktop\A&amp;G.png"
   inkscape:export-xdpi="96"
   inkscape:export-ydpi="96"
   xmlns:inkscape="http://www.inkscape.org/namespaces/inkscape"
   xmlns:sodipodi="http://sodipodi.sourceforge.net/DTD/sodipodi-0.dtd"
   xmlns:xlink="http://www.w3.org/1999/xlink"
   xmlns="http://www.w3.org/2000/svg"
   xmlns:svg="http://www.w3.org/2000/svg">
  <sodipodi:namedview
     id="namedview7"
     pagecolor="#505050"
     bordercolor="#ffffff"
     borderopacity="1"
     inkscape:pageshadow="0"
     inkscape:pageopacity="0"
     inkscape:pagecheckerboard="1"
     inkscape:document-units="px"
     showgrid="false"
     units="px"
     inkscape:zoom="0.5"
     inkscape:cx="675"
     inkscape:cy="299"
     inkscape:window-width="1918"
     inkscape:window-height="1000"
     inkscape:window-x="-7"
     inkscape:window-y="0"
     inkscape:window-maximized="0"
     inkscape:current-layer="layer3" />
  <defs
     id="defs2">
    <linearGradient
       inkscape:collect="always"
       id="linearGradient4023">
      <stop
         style="stop-color:#5f8dd3;stop-opacity:1;"
         offset="0"
         id="stop4019" />
      <stop
         style="stop-color:#003380;stop-opacity:1"
         offset="1"
         id="stop4021" />
    </linearGradient>
    <linearGradient
       inkscape:collect="always"
       xlink:href="#linearGradient4023"
       id="linearGradient4025"
       x1="63.415474"
       y1="19.385267"
       x2="377.46353"
       y2="174.43109"
       gradientUnits="userSpaceOnUse" />
  </defs>
  <g
     inkscape:groupmode="layer"
     id="layer3"
     inkscape:label="Background"
     style="display:inline">
    <rect
       style="fill:#c5c5c5;fill-opacity:1;stroke-width:63.1617;paint-order:stroke fill markers"
       id="rect13272"
       height="238.125"
       x="1.7763568e-15"
       y="3.5527137e-15"
       width="423.33334" />
  </g>
  <g
     inkscape:label="A-"
     inkscape:groupmode="layer"
     id="layer1"
     style="display:inline">
    <path
       style="display:inline;fill:#16196a;fill-opacity:1;stroke:none;stroke-width:0.264583px;stroke-linecap:butt;stroke-linejoin:miter;stroke-opacity:1"
       d="m 78.537864,148.93744 c 0.676376,0.83168 -8.712112,11.2057 -9.111539,18.09769 -0.399427,6.89199 5.569077,12.75346 13.530151,11.76449 7.961074,-0.98897 14.004497,-6.68319 23.861514,-33.88598 9.85703,-27.20279 9.12394,-52.728338 16.60025,-68.566215 7.4763,-15.837878 11.70727,-22.324681 20.7503,-27.606927 9.04304,-5.282246 26.30419,-5.57408 28.05801,-3.698966 1.75382,1.875114 -4.61921,51.825711 -3.02099,66.368648 1.59822,14.54293 2.6864,21.7802 6.15567,34.60157 3.46928,12.82137 6.42612,17.0598 11.00116,22.46612 8.89262,10.50841 21.86996,17.57486 34.1343,15.8662 18.57404,-2.58773 29.89019,-16.94158 35.96365,-32.69232 6.07346,-15.75074 13.7596,-52.262667 20.60865,-70.288961 6.84905,-18.026294 16.71074,-25.551273 26.37334,-29.765598 9.6626,-4.214325 19.65575,-5.199664 31.18965,-3.931965 11.5339,1.267699 16.96544,4.854726 23.57671,9.449301 6.61127,4.594575 8.65418,5.70029 4.16556,12.487212 -4.48861,6.786922 -6.63082,8.239674 -10.10984,5.217299 -3.47902,-3.022374 -7.50219,-6.779512 -18.48137,-8.723585 -10.97918,-1.944073 -15.592,1.31202 -22.89125,7.514623 -7.29925,6.202603 -13.55019,18.103312 -17.50904,30.089094 -3.95886,11.98579 -10.11549,34.50564 -18.86775,53.79529 -8.75225,19.28965 -33.68347,36.18299 -57.96546,36.61138 -24.28199,0.42839 -35.33306,-3.96744 -40.15749,-6.69277 -4.82443,-2.72533 -13.89229,-15.06263 -18.91872,-31.10999 -5.02644,-16.04736 -7.89951,-37.90687 -7.54742,-57.760297 0.35209,-19.853432 4.525,-29.532703 1.91117,-26.074758 -2.61383,3.457945 -7.99111,14.950619 -12.90128,36.358135 -4.91017,21.40752 -1.52885,17.02982 -9.02186,35.72661 -7.49302,18.69679 -18.5534,30.91351 -28.50912,37.53098 -9.955716,6.61747 -16.32027,7.00805 -23.817736,6.13487 -7.497466,-0.87318 -13.235164,-1.74311 -18.317056,-9.62885 -5.081892,-7.88574 -2.815675,-18.10486 -0.636332,-22.17161 2.179343,-4.06675 1.198674,-4.29105 9.891718,-6.20859 8.693044,-1.91754 9.336033,-2.10381 10.01241,-1.27213 z"
       id="path1064"
       sodipodi:nodetypes="zzzzzzzzzsszzzzzzzzzzzzzzzzzzzzzzzzz" />
  </g>
  <g
     inkscape:groupmode="layer"
     id="layer2"
     inkscape:label="-G"
     style="display:inline">
    <path
       style="display:inline;fill:url(#linearGradient4025);fill-opacity:1;stroke:none;stroke-width:0.264583px;stroke-linecap:butt;stroke-linejoin:miter;stroke-opacity:1"
       d="m 64.33567,129.10414 c -0.314737,-5.84219 3.397878,-12.7644 10.671247,-11.8693 7.273369,0.8951 27.241833,14.71546 35.258423,18.58908 8.01659,3.87363 29.38327,11.98376 44.04292,13.31847 14.65966,1.33471 32.64797,-3.26434 48.12461,-8.66783 15.47664,-5.40349 32.87668,-15.01339 44.17225,-26.80395 11.29556,-11.79057 11.83502,-32.54895 6.98478,-41.500404 -4.85023,-8.951454 -13.78049,-10.112833 -22.233,-9.639968 -8.45251,0.472865 -18.24457,4.533802 -26.43438,16.928018 -8.18981,12.394216 -6.17317,33.953554 1.61723,51.708564 7.7904,17.75501 22.91471,37.9923 35.89361,47.09072 12.9789,9.09842 33.16919,18.45912 53.85712,18.19983 20.68793,-0.25929 37.58651,-8.86391 46.80165,-19.88013 9.21514,-11.01622 12.68831,-23.33613 12.07882,-34.76659 -0.60949,-11.43046 -8.11913,-20.42808 -20.67013,-22.87849 -12.55099,-2.45042 -21.71784,4.14038 -24.10553,6.0048 -2.38769,1.86442 -2.23603,2.81426 -0.75078,10.84607 1.48524,8.03181 1.44305,8.22309 3.46042,7.36609 2.01737,-0.857 5.58144,-9.18165 13.88382,-9.75579 8.30238,-0.57415 16.55308,4.95978 16.32748,16.87165 -0.22559,11.91186 -3.88393,19.44132 -11.19092,26.27783 -7.30699,6.83652 -13.07152,10.27301 -22.55769,12.91651 -9.48617,2.64349 -22.39003,2.79744 -34.8867,-1.28786 -12.49667,-4.0853 -17.2302,-7.07077 -24.81439,-12.03512 -7.58419,-4.96435 -19.53286,-16.34139 -30.24147,-32.297 -10.70861,-15.95561 -14.40253,-34.45023 -9.92561,-51.460026 4.47692,-17.009792 13.65094,-23.566852 23.29611,-24.523558 9.64517,-0.956705 15.98584,10.521731 14.23514,22.385871 -1.75069,11.864143 -9.43416,23.517683 -19.25888,30.749743 -9.82472,7.23205 -36.4273,21.61756 -64.0713,22.13324 -27.64401,0.51568 -41.52233,-8.86169 -48.30532,-11.76924 -6.783,-2.90756 -11.32467,-6.03286 -22.400312,-13.55592 -11.075647,-7.52306 -16.25316,-11.74698 -24.342972,-11.62152 -8.089812,0.12546 -14.962232,5.1796 -17.520564,11.64086 -3.263905,9.48968 -1.669962,16.80163 4.034599,23.25664 5.704561,6.45501 7.405609,6.6541 13.988582,5.33739 7.91432,-1.583 9.036246,-1.99662 9.07672,-2.82266 0.04047,-0.82605 -13.780847,-8.6438 -14.095583,-14.486 z"
       id="path2253"
       sodipodi:nodetypes="zzzzzzzzzzzzzzzzzzzzzzzzzzzzzzzzzczszzz" />
  </g>
  <g
     inkscape:groupmode="layer"
     id="layer4"
     inkscape:label="Cover"
     style="display:inline">
    <path
       style="fill:#16196a;fill-opacity:1;stroke:none;stroke-width:0.264583px;stroke-linecap:butt;stroke-linejoin:miter;stroke-opacity:1"
       d="m 111.50485,129.32505 -1.89427,7.08598 20.36928,7.97465 2.31522,-6.03361 z"
       id="path4065" />
    <path
       style="fill:#16196a;fill-opacity:1;stroke:none;stroke-width:0.264583px;stroke-linecap:butt;stroke-linejoin:miter;stroke-opacity:1"
       d="m 244.22696,171.85515 -4.6833,4.32392 c 0,0 1.33419,1.48099 4.75483,3.87629 3.42063,2.39531 6.09631,3.43186 6.09631,3.43186 l 5.41595,-3.72765 z"
       id="path4133"
       sodipodi:nodetypes="cczccc" />
  </g>
</svg>
